<?xml version="1.0" standalone="no"?>
<!DOCTYPE svg PUBLIC "-//W3C//DTD SVG 20010904//EN"
 "http://www.w3.org/TR/2001/REC-SVG-20010904/DTD/svg10.dtd">
<svg version="1.0" xmlns="http://www.w3.org/2000/svg"
 width="225.000000pt" height="254.000000pt" viewBox="0 0 225.000000 254.000000"
 preserveAspectRatio="xMidYMid meet">
<metadata>
Created by potrace 1.16, written by Peter Selinger 2001-2019
</metadata>
<g transform="translate(0.000000,254.000000) scale(0.100000,-0.100000)"
fill="#000000" stroke="none">
<path d="M0 1270 l0 -1270 1125 0 1125 0 0 1270 0 1270 -1125 0 -1125 0 0
-1270z m1177 1030 l685 0 29 -29 29 -29 0 -144 c0 -142 0 -145 -26 -169 -25
-23 -31 -24 -204 -27 l-179 -4 -102 -106 c-56 -59 -107 -110 -114 -114 -7 -4
-104 -21 -216 -37 -112 -17 -253 -37 -312 -46 -99 -15 -110 -15 -133 -1 -27
18 -32 61 -11 89 12 16 31 20 517 92 l95 14 112 118 111 118 169 5 168 5 3 58
c2 35 -2 64 -9 73 -10 12 -113 14 -658 14 -490 0 -650 -3 -659 -12 -9 -9 -12
-77 -12 -245 0 -154 -4 -241 -12 -257 -21 -47 -85 -47 -106 -1 -8 18 -12 109
-12 286 0 270 3 294 45 329 18 15 83 30 103 24 8 -2 322 -4 699 -4z m958 -502
c54 -24 42 -102 -18 -113 -18 -4 -144 -5 -279 -3 -275 3 -281 5 -276 67 2 26
10 39 28 48 34 17 508 18 545 1z m-217 -224 c26 -18 30 -65 6 -88 -13 -13 -43
-16 -174 -16 -175 0 -190 5 -190 60 0 52 26 60 190 60 116 0 150 -3 168 -16z
m-1483 -50 c19 -14 20 -28 23 -270 l3 -255 26 -10 c16 -6 266 -8 660 -7 550 3
635 5 643 18 6 8 9 65 8 125 l-3 110 -192 3 -191 2 -11 -33 c-28 -83 -113
-145 -212 -154 -49 -5 -67 -2 -113 21 -58 28 -106 80 -123 131 l-10 30 -127 5
c-149 6 -148 5 -166 109 -22 130 -12 164 46 164 37 0 60 -31 68 -92 l7 -51 87
0 88 0 34 51 c42 62 122 108 187 109 91 0 179 -51 217 -127 9 -18 22 -33 29
-33 6 -1 103 0 214 0 216 1 260 -7 283 -49 7 -14 11 -89 11 -207 1 -202 -5
-225 -57 -244 -15 -6 -311 -10 -742 -10 -788 0 -744 -3 -777 60 -12 24 -15 80
-15 305 0 262 1 276 20 295 24 24 57 25 85 4z m1345 -1129 l0 -205 -30 0 -30
0 0 205 0 205 30 0 30 0 0 -205z m-1376 176 c3 -4 17 -64 32 -132 14 -68 30
-128 34 -132 4 -5 23 54 41 130 l34 138 32 3 c36 4 29 21 80 -183 l27 -110 12
45 c7 25 22 91 35 148 22 100 23 102 51 102 20 0 28 -5 28 -17 -1 -10 -20 -97
-43 -193 l-42 -175 -33 -3 c-38 -4 -40 0 -79 157 -14 58 -29 109 -32 113 -4 4
-23 -54 -42 -130 l-35 -137 -34 0 -35 0 -46 185 c-25 102 -44 188 -42 193 6
10 51 9 57 -2z m1586 -55 c0 -33 2 -35 38 -38 29 -2 37 -7 37 -23 0 -16 -8
-21 -37 -23 l-38 -3 0 -89 c0 -78 2 -91 19 -100 11 -5 27 -7 35 -4 19 7 34
-22 19 -37 -5 -5 -20 -10 -34 -11 -87 -4 -101 17 -100 143 1 83 -1 91 -19 96
-26 7 -26 29 0 43 11 6 23 23 26 38 9 38 13 42 35 42 15 0 19 -7 19 -34z
m-922 -53 c28 -17 52 -70 52 -113 l0 -30 -90 0 c-88 0 -90 -1 -90 -23 0 -46
57 -74 116 -58 44 12 54 8 47 -19 -7 -28 -69 -43 -125 -31 -57 13 -94 55 -104
116 -20 133 91 223 194 158z m274 6 c27 -15 5 -53 -25 -45 -12 3 -31 9 -42 12
-25 6 -60 -18 -53 -38 4 -8 30 -26 60 -40 68 -32 80 -48 76 -94 -4 -48 -41
-77 -100 -78 -70 -1 -98 11 -98 39 0 29 -2 28 55 14 53 -13 88 1 83 34 -2 15
-20 30 -60 49 -80 38 -102 92 -55 135 34 33 110 38 159 12z m275 -5 c24 -15
57 -92 51 -120 -3 -16 -16 -20 -93 -24 -83 -5 -90 -7 -87 -25 2 -11 15 -30 29
-43 26 -23 51 -25 116 -6 28 9 23 -43 -5 -52 -38 -12 -118 -6 -144 11 -60 39
-80 124 -48 204 29 73 111 98 181 55z"/>
<path d="M1108 1380 c-78 -61 -49 -188 47 -206 72 -13 135 43 135 122 0 28 -8
44 -34 70 -29 29 -41 34 -79 34 -29 0 -53 -7 -69 -20z"/>
<path d="M980 433 c-19 -7 -40 -33 -40 -50 0 -9 16 -13 53 -13 30 0 56 3 60 6
7 7 -13 54 -24 54 -4 0 -13 2 -21 4 -7 3 -20 2 -28 -1z"/>
<path d="M1520 427 c-14 -7 -26 -23 -28 -35 -3 -20 0 -22 52 -22 49 0 56 3 56
19 0 11 -10 27 -22 35 -27 19 -26 19 -58 3z"/>
</g>
</svg>
